Coordinates
version=1
nRows=24
nColumns=24
inDegrees=yes

Units are S.I. units (second, meters, Newtons, ...)
Angles are in degrees.

endheader
time	pelvis_tilt	pelvis_list	pelvis_rotation	pelvis_tx	pelvis_ty	pelvis_tz	hip_flexion_r	hip_adduction_r	hip_rotation_r	knee_angle_r	ankle_angle_r	subtalar_angle_r	mtp_angle_r	hip_flexion_l	hip_adduction_l	hip_rotation_l	knee_angle_l	ankle_angle_l	subtalar_angle_l	mtp_angle_l	lumbar_extension	lumbar_bending	lumbar_rotation
      0.80050000	      0.59284849	     -3.10310026	     -1.37836607	     -0.46125799	      1.06892745	      0.34595613	      8.46575912	      8.42764731	     -3.87463063	    -12.08411699	      0.97768510	     -8.92825956	      0.06824940	     13.26762337	     -5.62537737	     -3.58654189	    -67.21120260	     -3.34306277	     -2.25694859	      4.92771449	      4.47156762	      6.87510807	     -2.40013194
      0.80466667	      0.60093656	     -3.06018296	     -1.37375387	     -0.45620856	      1.06950633	      0.34629242	      8.06865335	      8.42170423	     -3.70121749	    -11.90986204	      1.09704481	     -8.93767851	      0.06719553	     13.88401890	     -5.55854320	     -3.36213447	    -67.15318412	     -2.94238814	     -2.32867260	      4.89945652	      4.40431468	      6.75972665	     -2.32773901
      0.80883333	      0.61228420	     -2.97529389	     -1.42625892	     -0.45119681	      1.07009210	      0.34648798	      7.68857088	      8.35117713	     -3.57060730	    -11.79131989	      1.30815457	     -9.05061330	      0.06184413	     14.46497966	     -5.42463450	     -3.19361119	    -67.03189060	     -2.24500482	     -2.37570734	      4.84799783	      4.36461779	      6.68994433	     -2.21788759
      0.81300000	      0.62879409	     -2.93044739	     -1.42366366	     -0.44616786	      1.07064452	      0.34680961	      7.27524801	      8.34196515	     -3.37915085	    -11.59848250	      1.42453675	     -9.06852720	      0.05885944	     15.04287225	     -5.34577526	     -2.97842517	    -66.85277576	     -1.84108190	     -2.41394997	      4.81808447	      4.29800117	      6.57088287	     -2.13644210
      0.81716667	      0.64976058	     -2.86449193	     -1.45115678	     -0.44112577	      1.07120535	      0.34707402	      6.86193000	      8.30158630	     -3.20705214	    -11.43019565	      1.59407162	     -9.14116729	      0.05400218	     15.58530393	     -5.23364755	     -2.79404064	    -66.60362796	     -1.27659210	     -2.46917517	      4.78535782	      4.24268815	      6.46297464	     -2.04263880
      0.82133333	      0.67495140	     -2.80216799	     -1.49193119	     -0.43611828	      1.07174640	      0.34734101	      6.44560666	      8.26527099	     -3.02205918	    -11.26534614	      1.76168826	     -9.22742645	      0.04675655	     16.10674228	     -5.12557083	     -2.62552662	    -66.29857161	     -0.69816340	     -2.48870007	      4.74630843	      4.17688055	      6.37637089	     -1.93919202
      0.82550000	      0.69232862	     -2.73816644	     -1.53140564	     -0.43110205	      1.07225610	      0.34761478	      6.03181979	      8.22809916	     -2.83641004	    -11.08282846	      1.90285280	     -9.30423257	      0.03898475	     16.61921009	     -5.01379127	     -2.46218504	    -65.92774783	     -0.20119256	     -2.50376514	      4.70953157	      4.11527060	      6.28289168	     -1.84123489
      0.82966667	      0.71168779	     -2.66690794	     -1.57815210	     -0.42609121	      1.07275419	      0.34789061	      5.61502606	      8.18279286	     -2.64412461	    -10.89813446	      2.05153003	     -9.39341736	      0.02979357	     17.11031414	     -4.89155799	     -2.31032505	    -65.49623876	      0.31317262	     -2.53428236	      4.67106070	      4.05901021	      6.18291032	     -1.73854171
      0.83383333	      0.73821211	     -2.58930238	     -1.68178422	     -0.42111189	      1.07324991	      0.34817766	      5.20107913	      8.12838620	     -2.44294430	    -10.74731283	      2.22038318	     -9.56477142	      0.01037695	     17.56034812	     -4.77001223	     -2.22058414	    -65.00174297	      0.92695127	     -2.51774678	      4.59946052	      3.95249755	      6.12689011	     -1.59510810
      0.83800000	      0.75501619	     -2.54456083	     -1.68729586	     -0.41608334	      1.07368051	      0.34842099	      4.76682270	      8.11244069	     -2.23453833	    -10.51735169	      2.31574825	     -9.61227585	     -0.00004512	     18.02861607	     -4.66646681	     -2.03475743	    -64.45663768	      1.26960024	     -2.56942663	      4.55966482	      3.91590572	      6.02408498	     -1.50328066
      0.84216667	      0.76465014	     -2.47819728	     -1.73364816	     -0.41104644	      1.07409925	      0.34866669	      4.34727442	      8.06832153	     -2.04065435	    -10.31118536	      2.45584755	     -9.71359790	     -0.01277642	     18.47145895	     -4.54249629	     -1.90146077	    -63.84616315	      1.72383887	     -2.67188248	      4.51653540	      3.87865519	      5.92346321	     -1.40721178
      0.84633333	      0.79081507	     -2.40732765	     -1.85068188	     -0.40609184	      1.07451714	      0.34897670	      3.92517257	      8.02029731	     -1.81018836	    -10.13840886	      2.60981404	     -9.91237696	     -0.04230808	     18.86438547	     -4.43091339	     -1.84630290	    -63.17600162	      2.26001028	     -2.75726097	      4.42231538	      3.74532346	      5.86215758	     -1.25521751
      0.85050000	      0.80070115	     -2.36164895	     -1.85478491	     -0.40105061	      1.07487110	      0.34918170	      3.48837268	      7.99873143	     -1.61500511	     -9.88856400	      2.69558489	     -9.96836935	     -0.05645389	     19.27790157	     -4.31770575	     -1.67847662	    -62.45058103	      2.54414191	     -2.86005449	      4.37557834	      3.73816050	      5.77522262	     -1.16773270
      0.85466667	      0.81276715	     -2.30348957	     -1.90419704	     -0.39601813	      1.07521956	      0.34940072	      3.05623653	      7.95948594	     -1.41759059	     -9.65995210	      2.82292634	    -10.08303441	     -0.07441054	     19.65668985	     -4.19834694	     -1.56842670	    -61.66454800	      2.92414468	     -3.03968913	      4.32002305	      3.70597381	      5.68699863	     -1.07305781
      0.85883333	      0.76886675	     -2.24592832	     -1.95841496	     -0.39107116	      1.07544005	      0.34947397	      2.70841973	      7.90426237	     -1.29428667	     -9.47412309	      2.89083523	    -10.13693485	     -0.08259865	     20.08501890	     -4.06175779	     -1.43722626	    -60.82071647	      3.12913884	     -3.13991938	      4.29464793	      3.61821386	      5.68125546	     -1.03835472
      0.86300000	      0.81255678	     -2.20708225	     -1.98527413	     -0.38596509	      1.07577389	      0.34979353	      2.21237603	      7.89811287	     -1.05446393	     -9.18543948	      3.04782822	    -10.27021748	     -0.10156615	     20.38319682	     -3.97280880	     -1.34613419	    -59.92396457	      3.54525393	     -3.43981017	      4.23673985	      3.66573967	      5.54579181	     -0.92491102
      0.86716667	      0.85319738	     -2.14379051	     -2.13146096	     -0.38104173	      1.07608595	      0.35013127	      1.76002863	      7.85162840	     -0.76222735	     -8.97838854	      3.17382155	    -10.55291580	     -0.15106674	     20.64909682	     -3.88019612	     -1.37042267	    -58.95093376	      3.87345629	     -3.84708688	      4.09089189	      3.45046953	      5.45985232	     -0.73875558
      0.87133333	      0.79924020	     -2.11454134	     -2.13237088	     -0.37608276	      1.07618164	      0.35016165	      1.40473308	      7.82754227	     -0.64778792	     -8.74669997	      3.21703186	    -10.57942054	     -0.16020992	     21.03551464	     -3.76339851	     -1.20731871	    -57.94792939	      4.00075247	     -3.94013381	      4.06225786	      3.41798283	      5.48488765	     -0.70552270
      0.87550000	      0.85481659	     -2.06253552	     -2.21161044	     -0.37097162	      1.07647390	      0.35047985	      0.89648317	      7.79455759	     -0.39883858	     -8.46423552	      3.35275927	    -10.81220904	     -0.20858666	     21.23473198	     -3.67044299	     -1.20556334	    -56.85460643	      4.27838520	     -4.49231445	      3.91825916	      3.38191731	      5.32069498	     -0.53169087
      0.87966667	      0.78564936	     -2.04946297	     -2.21246680	     -0.36601575	      1.07647769	      0.35049120	      0.55543600	      7.78555045	     -0.28675387	     -8.22929331	      3.39603413	    -10.83625062	     -0.21879150	     21.59340970	     -3.56936450	     -1.05140184	    -55.74572488	      4.38573594	     -4.60809257	      3.88587281	      3.35321926	      5.37964158	     -0.50570457
      0.88383333	      0.81002933	     -2.02281536	     -2.21469134	     -0.36082253	      1.07663725	      0.35070394	      0.06154883	      7.77810246	     -0.09601954	     -7.90458304	      3.51045151	    -10.94836546	     -0.24519629	     21.79216839	     -3.47952860	     -0.98348625	    -54.55113290	      4.57000513	     -5.04025442	      3.80330999	      3.49047036	      5.29621048	     -0.40247789
      0.88800000	      0.80137288	     -1.98374453	     -2.26328128	     -0.35572286	      1.07672142	      0.35085654	     -0.37265076	      7.74383241	      0.09941182	     -7.62949996	      3.60723650	    -11.08876937	     -0.27934893	     22.00229082	     -3.37842777	     -0.95085618	    -53.29213524	      4.66784836	     -5.54982462	      3.69711492	      3.48013998	      5.23392778	     -0.30144729
      0.89216667	      0.79636312	     -1.96508284	     -2.29912509	     -0.35068103	      1.07675088	      0.35098401	     -0.80554881	      7.73039806	      0.27585076	     -7.35689991	      3.68231574	    -11.22180900	     -0.31816598	     22.19600607	     -3.29706071	     -0.91035734	    -51.99030855	      4.69345341	     -6.05103578	      3.57666107	      3.44914791	      5.20711211	     -0.20237620
      0.89633333	      0.81123812	     -1.93974451	     -2.38099433	     -0.34574009	      1.07678167	      0.35115427	     -1.24227774	      7.70494433	      0.47666279	     -7.11326323	      3.73664109	    -11.43041233	     -0.40010214	     22.34254130	     -3.22330306	     -0.93801341	    -50.61795878	      4.55708136	     -6.82820884	      3.32673222	      3.22590759	      5.12203893	     -0.03848826
